<svg width="48" height="48" viewBox="0 0 48 48" fill="none" xmlns="http://www.w3.org/2000/svg">
<path d="M24 7.605C29.34 7.605 29.9733 7.625 32.0833 7.72167C37.5033 7.96833 40.035 10.54 40.2817 15.92C40.3783 18.0283 40.3967 18.6617 40.3967 24.0017C40.3967 29.3433 40.3767 29.975 40.2817 32.0833C40.0333 37.4583 37.5083 40.035 32.0833 40.2817C29.9733 40.3783 29.3433 40.3983 24 40.3983C18.66 40.3983 18.0267 40.3783 15.9183 40.2817C10.485 40.0333 7.96667 37.45 7.72 32.0817C7.62333 29.9733 7.60333 29.3417 7.60333 24C7.60333 18.66 7.625 18.0283 7.72 15.9183C7.96833 10.54 10.4933 7.96667 15.9183 7.72C18.0283 7.625 18.66 7.605 24 7.605ZM24 4C18.5683 4 17.8883 4.02333 15.755 4.12C8.49167 4.45333 4.455 8.48333 4.12167 15.7533C4.02333 17.8883 4 18.5683 4 24C4 29.4317 4.02333 30.1133 4.12 32.2467C4.45333 39.51 8.48333 43.5467 15.7533 43.88C17.8883 43.9767 18.5683 44 24 44C29.4317 44 30.1133 43.9767 32.2467 43.88C39.5033 43.5467 43.55 39.5167 43.8783 32.2467C43.9767 30.1133 44 29.4317 44 24C44 18.5683 43.9767 17.8883 43.88 15.755C43.5533 8.49833 39.5183 4.455 32.2483 4.12167C30.1133 4.02333 29.4317 4 24 4V4ZM24 13.73C18.3283 13.73 13.73 18.3283 13.73 24C13.73 29.6717 18.3283 34.2717 24 34.2717C29.6717 34.2717 34.27 29.6733 34.27 24C34.27 18.3283 29.6717 13.73 24 13.73ZM24 30.6667C20.3183 30.6667 17.3333 27.6833 17.3333 24C17.3333 20.3183 20.3183 17.3333 24 17.3333C27.6817 17.3333 30.6667 20.3183 30.6667 24C30.6667 27.6833 27.6817 30.6667 24 30.6667ZM34.6767 10.925C33.35 10.925 32.275 12 32.275 13.325C32.275 14.65 33.35 15.725 34.6767 15.725C36.0017 15.725 37.075 14.65 37.075 13.325C37.075 12 36.0017 10.925 34.6767 10.925Z" fill="white"/>
</svg>
